<svg xmlns="http://www.w3.org/2000/svg" xmlns:xlink="http://www.w3.org/1999/xlink" width="80" height="68.412" viewBox="0 0 80 68.412">
  <defs>
    <clipPath id="clip-path">
      <rect id="Rectangle_6" data-name="Rectangle 6" width="80" height="68.411"/>
    </clipPath>
  </defs>
  <g id="Groupe_13" data-name="Groupe 13" clip-path="url(#clip-path)">
    <path id="Tracé_5" data-name="Tracé 5" d="M82.875,45.6c3.75.191,7.993-.383,11.686-.044,5.583.512,5.969,9.346-.339,10.005a73.934,73.934,0,0,1-10.3.025c-6.149-.487-6.846-8.43-1.05-9.986m.62,3.282a1.687,1.687,0,0,0-.024,3.245H94.233a1.653,1.653,0,0,0-.162-3.264Z" transform="translate(-32.287 -18.597)"/>
    <path id="Tracé_6" data-name="Tracé 6" d="M55.288,22.776a71.01,71.01,0,0,1,10.429-.049c6.217.492,6.82,8.59.918,10.01-3.716-.233-7.893.355-11.554.02-5.532-.507-5.98-9.241.206-9.981m-.011,3.433a1.655,1.655,0,0,0,.294,3.24c3.131.446,7.211-.3,10.444.005a1.686,1.686,0,0,0,.157-3.27Z" transform="translate(-20.785 -9.232)"/>
    <path id="Tracé_7" data-name="Tracé 7" d="M83.069.233A74.589,74.589,0,0,1,94.286.189c6.112.527,6.058,9.333.29,10.006a76.658,76.658,0,0,1-11.082.024c-5.869-.539-6-9.117-.424-9.987M83.85,3.52c-2.111.356-2.181,3.1.292,3.389a62.812,62.812,0,0,0,9.651,0c2.446-.289,2.443-3.119,0-3.409a64.124,64.124,0,0,0-9.944.02" transform="translate(-32.324 0)"/>
    <path id="Tracé_8" data-name="Tracé 8" d="M80,70.967a13.413,13.413,0,0,1-1.723,2.891C73.093,80.14,56.363,87.982,48.34,89.1c-5.387.75-10.918-1.455-15.782-3.548-4.193-1.8-8.172-4.147-12.548-5.507V83.1c0,.333-.954,1.476-1.481,1.335H1.337A1.45,1.45,0,0,1,0,82.949c.066-10.254-.1-20.528.082-30.77a1.554,1.554,0,0,1,1.558-1.1c5.278-.509,11.364.4,16.728,0a1.9,1.9,0,0,1,1.637,1.491v5.244a32.868,32.868,0,0,1,15.157,3.363c1.726.878,3.258,2.113,4.948,3.025,2.663,1.436,4.494.62,7.319.65,2.606.028,6.517.516,8.65,2.133a6.878,6.878,0,0,1,2.456,4.147c1.914.386,9.013-6.29,11.1-7.5,3.645-2.1,8.124-1.034,9.809,2.947L80,68.306ZM16.573,54.374H3.293V81.141H16.573ZM55,71.123c-.62-2.383-4.246-2.71-6.321-2.824s-4.281.248-6.263.169c-3.068-.121-6.116-2.939-8.816-4.314A30.928,30.928,0,0,0,20.01,61.106V76.759c4.967,1,9.471,3.831,14.11,5.819,5.378,2.306,10.043,4.105,16.013,2.839,6.122-1.3,13.626-5.089,18.919-8.437,1.685-1.066,7.119-4.688,7.594-6.478A3.864,3.864,0,0,0,74.8,66.24c-2.078-.866-3.2.067-4.782,1.218-4.006,2.922-7.475,7.251-12.908,7.115-8.048-.2-16.13-.181-24.2-.172a1.649,1.649,0,0,1-.943-2.649,3.645,3.645,0,0,1,.934-.629Z" transform="translate(0 -20.838)"/>
  </g>
</svg>
