<svg xmlns="http://www.w3.org/2000/svg" xmlns:xlink="http://www.w3.org/1999/xlink" width="71.079" height="72.867" viewBox="0 0 71.079 72.867">
  <defs>
    <clipPath id="clip-path">
      <rect id="Rectangle_7" data-name="Rectangle 7" width="71.079" height="72.867" fill="#fff"/>
    </clipPath>
  </defs>
  <g id="Groupe_15" data-name="Groupe 15" clip-path="url(#clip-path)">
    <path id="Tracé_9" data-name="Tracé 9" d="M37.138,0l3.446.366c15.423,2.158,28.034,15.083,30.138,30.9l.357,3.534V38.18L70.722,41.6c-2.108,15.856-14.7,28.716-30.138,30.9l-3.333.366H33.846L30.514,72.5C15.054,70.3,2.5,57.465.376,41.6L.019,38.18c.044-1.158-.06-2.336,0-3.492C.988,15.961,15.59.993,33.846,0ZM69.121,36.434c0-19.013-15.031-34.427-33.573-34.427S1.976,17.421,1.976,36.434,17.007,70.86,35.549,70.86,69.121,55.447,69.121,36.434" transform="translate(0)" fill="#fff"/>
    <path id="Tracé_10" data-name="Tracé 10" d="M139.068,72.433V102.36h-8.979V72.433Zm-7.383,28.292h5.789V74.069h-5.789Z" transform="translate(-79.337 -43.456)" fill="#fff"/>
    <path id="Tracé_11" data-name="Tracé 11" d="M104.167,88.534a2.144,2.144,0,0,1,.931-.268,48.789,48.789,0,0,1,6.706,0,1.124,1.124,0,0,1,1.05.553l.03,22.214c0,.349-.293.558-.567.7-2.357-.089-5.128.3-7.441.052-.508-.054-.749-.179-.911-.7l-.06-21.717a1.619,1.619,0,0,1,.262-.837m7.122,1.367H105.5v20.254h5.789Z" transform="translate(-63.368 -52.885)" fill="#fff"/>
    <path id="Tracé_12" data-name="Tracé 12" d="M78.557,100.693l7.584-.028c.68.081.8.47.853,1.1.473,5.2-.368,11.143,0,16.423-.075.8-.3,1.038-1.08,1.1-2.253.194-4.762-.155-7.045,0a1,1,0,0,1-.825-.55l-.026-17.322a.7.7,0,0,1,.537-.73m1.054,16.97H85.4V102.3H79.611Z" transform="translate(-47.582 -60.393)" fill="#fff"/>
    <path id="Tracé_13" data-name="Tracé 13" d="M53.885,112.5c2.284.143,5-.287,7.238-.028.6.07.976.307.97.984-.266,3.827.336,8.113,0,11.884-.062.69-.289.926-.965.989-2.273.212-4.853-.171-7.159,0-.611-.073-.8-.39-.854-.986-.338-3.807.266-8.134,0-12a.838.838,0,0,1,.767-.843m6.613,1.6H54.709V124.7H60.5Z" transform="translate(-32.328 -67.426)" fill="#fff"/>
    <path id="Tracé_14" data-name="Tracé 14" d="M49.878,53.358a5.037,5.037,0,1,1-5.035-5.164,5.1,5.1,0,0,1,5.035,5.164m-1.573,0A3.452,3.452,0,1,0,44.854,56.9a3.5,3.5,0,0,0,3.451-3.539" transform="translate(-24.277 -28.914)" fill="#fff"/>
    <path id="Tracé_15" data-name="Tracé 15" d="M63.714,46.611a3.684,3.684,0,0,1-4.844,5.14,3.946,3.946,0,0,1-1.826-2.435c-.122-.741.089-1.517-.016-2.19l-3.79-2.366a3.556,3.556,0,0,1-3.7.812L45.012,53.3a6.145,6.145,0,0,1,2.212,3.522,40.919,40.919,0,0,1,.147,7.537c-.079.7-.458.816-1.076.875-5.229-.374-11.088.482-16.243,0-.666-.062-1-.274-1.076-.993a38.363,38.363,0,0,1,.168-7.4A5.935,5.935,0,0,1,34.033,52.2a60.526,60.526,0,0,1,8.175-.006,10.076,10.076,0,0,1,1.419.3l4.52-7.6c.055-.282-.45-.79-.595-1.09-1.748-3.615,2.371-7.028,5.369-4.691,1.417,1.1,1.519,2.525,1.309,4.237l3.666,2.43c.494-.13.821-.571,1.36-.773a3.878,3.878,0,0,1,3.478.421l5.355-4.874c-.516-1.7-.48-3.509.959-4.712a3.578,3.578,0,0,1,5.531,1.2,3.664,3.664,0,0,1-5.344,4.692Zm9.67-7.909a2.026,2.026,0,1,0-2.026,2.077A2.052,2.052,0,0,0,73.385,38.7m-20.62,3.367a2.026,2.026,0,1,0-2.025,2.077,2.051,2.051,0,0,0,2.025-2.077m9.833,6.4a2.026,2.026,0,1,0-2.025,2.077A2.051,2.051,0,0,0,62.6,48.468M45.779,63.6V57.493c0-1.432-1.72-3.147-3.014-3.544-1.465-.449-6.032-.356-7.718-.244a4.467,4.467,0,0,0-4.313,3.26,31.173,31.173,0,0,0-.171,6.238c.02.17.014.3.176.4h1.7c.162-.1.157-.232.176-.4.172-1.507-.161-3.327.018-4.87a.879.879,0,0,1,1.31-.286c.024.121.255.452.255.494V63.6H42.09l.17-.174V58.773c0-.144-.1-.173.022-.434.373-.786,1.454-.365,1.454-.032v5.122l.17.174Z" transform="translate(-17.609 -21.001)" fill="#fff"/>
  </g>
</svg>
