<svg xmlns="http://www.w3.org/2000/svg" xmlns:xlink="http://www.w3.org/1999/xlink" width="71.299" height="79.237" viewBox="0 0 71.299 79.237">
  <defs>
    <clipPath id="clip-path">
      <rect id="Rectangle_8" data-name="Rectangle 8" width="71.299" height="79.237" fill="#fff"/>
    </clipPath>
  </defs>
  <g id="Groupe_17" data-name="Groupe 17" clip-path="url(#clip-path)">
    <path id="Tracé_16" data-name="Tracé 16" d="M45.774,52.046a26.914,26.914,0,0,1-13.66,6.147C12.582,60.907-3.519,42.82.667,22.88,4.115,6.459,20.49-3.534,36.148,1.163A28.574,28.574,0,0,1,54.308,18.055c-.433-.458-1.929-.919-2.255-1.26-.285-.3-1.073-2.048-1.414-2.593A27.943,27.943,0,0,0,44.376,7.23a6.143,6.143,0,0,0-.833-.576c-.219-.037-.119.058-.159.149-.2.463-.355.966-.566,1.427a29.423,29.423,0,0,1,3.75,7.052L44.9,15.164c-.088-.461-2.7-5.531-2.991-5.324a16.1,16.1,0,0,1-4.415,4.924l.338,1.946-1.481.626L36,15.693A16.919,16.919,0,0,1,29,17.747v5.34l1.191.051a11.185,11.185,0,0,0-.909,1.427,16.674,16.674,0,0,0-1.276,2.885c-.283.831-.433,1.725-.743,2.518H19.326c-.331.283-.062.731-.051,1.079a22.407,22.407,0,0,0,.1,3.132,48.788,48.788,0,0,1,7.642-.617V35.1l-7.379.631-.15.153a54.069,54.069,0,0,0,1.574,9.744,18.423,18.423,0,0,1,6.352-1.7V38.08l1.565,4.079.028,1.769c.072.076.915.056,1.086.159.236.143.982,1.472,1.29,1.746L29,45.576V56.667c3.164-1.122,4.37-5.007,5.607-7.905.269.274,1.267.656,1.226,1.049a16.654,16.654,0,0,1-.861,2.2,19.8,19.8,0,0,1-2.5,4.14,16.792,16.792,0,0,0,6.055-3.54,9.831,9.831,0,0,0,1.2-1.275c.525.263,1.766.274,2.191.505.195.106.353.71.429.722.254.06.746-.519.888-.519ZM27.414,16.1V1.727c-1.716.636-2.922,2.341-3.788,3.936a33.421,33.421,0,0,0-2.868,8.32A14.047,14.047,0,0,0,27.414,16.1M29,1.727V16.1a14.657,14.657,0,0,0,6.752-2.113,34.934,34.934,0,0,0-3.063-8.637C31.847,3.879,30.66,2.221,29,1.727m-5.062.617A17.679,17.679,0,0,0,15.556,8.4a14.493,14.493,0,0,0,3.77,4.621c1.013-3.768,2.2-7.6,4.614-10.678m13.1,10.679c.1.131,1.884-1.674,2.035-1.847.331-.379,1.916-2.435,1.822-2.8a17.3,17.3,0,0,0-8.423-6.027,25.15,25.15,0,0,1,4.566,10.679m1.686-9.138a26.431,26.431,0,0,1,2.833,2.87c.09.106.1.152.195.006.1-.163.393-.976.3-1.129a17.126,17.126,0,0,0-3.329-1.747m-21.139.1A15.247,15.247,0,0,0,14.5,5.571c-.278.385.22.867.208,1.291ZM8.557,19.493A31.98,31.98,0,0,1,13.6,8.324l-.63-1.669A27.394,27.394,0,0,0,4.1,17.39Zm8.174-6.711c-.837-.877-1.393-1.941-2.121-2.787-.049-.058-.129-.2-.2-.106A28.667,28.667,0,0,0,10.055,20.1a53.877,53.877,0,0,0,7.931,2.061,57.269,57.269,0,0,1,1-7.344c-.02-.23-.911-.768-1.141-.977-.337-.3-.8-.738-1.109-1.06m10.683,4.965a18.457,18.457,0,0,1-7.046-2.054l-.894,6.777a62.689,62.689,0,0,0,7.94.616Zm-25.8,10.68H7.367a37.027,37.027,0,0,1,.794-7.391L3.556,18.987c-.344.08-1.3,3.9-1.418,4.491a23.949,23.949,0,0,0-.527,4.949m7.394,0H17.54c.141-.09.137-.2.154-.354.145-1.276-.046-2.93.081-4.253a59.936,59.936,0,0,1-8.069-2.166c-.125.05-.117.155-.151.257a26.732,26.732,0,0,0-.6,5.847c-.005.178-.218.587.05.669m18.409-3.7a58.418,58.418,0,0,1-8.038-.719l-.2,4.416h8.237Zm-20.2,5.237H1.611a25.7,25.7,0,0,0,1.841,9.348l4.6-2.23Zm10.322,0H9c-.25,0-.049.6-.045.766A27.746,27.746,0,0,0,9.6,36.543a51.989,51.989,0,0,1,8.183-2.058l-.1-4.26ZM16.731,48.9a26.934,26.934,0,0,1,2.913-2.444A61.915,61.915,0,0,1,18.2,38.837c-.1-.809-.087-1.777-.211-2.554-.018-.113-.041-.2-.157-.244a45.642,45.642,0,0,0-7.885,2.2,32.349,32.349,0,0,0,3.971,9.545A26.334,26.334,0,0,0,15.56,50.1a.219.219,0,0,0,.25-.072c.276-.259.637-.842.921-1.128M8.558,38.8,4.1,40.758c-.184.267,1.743,3.493,2.056,3.968a26.345,26.345,0,0,0,7.9,7.827L14.7,51.5a30.39,30.39,0,0,1-5.153-9.152A19.592,19.592,0,0,1,8.558,38.8m18.856,6.778a14.157,14.157,0,0,0-5.959,1.7A29.327,29.327,0,0,0,23.9,53.27c.821,1.39,1.929,2.945,3.515,3.4Zm-7.245,2.568c-.09-.1-1.338.939-1.489,1.076A26.755,26.755,0,0,0,16.7,51.379a17.855,17.855,0,0,0,7.242,4.775l-1.468-2.228a23.408,23.408,0,0,1-2.3-5.782m-2.481,6.365c-.557-.452-1.177-1.245-1.735-1.643-.084-.059-.1-.143-.248-.1l-.3.717ZM41,53.474c.048-.072-.232-.753-.434-.706l-1.942,1.843Z" transform="translate(0 0)" fill="#fff"/>
    <path id="Tracé_17" data-name="Tracé 17" d="M95.893,51.973c0,9.8-7.677,17.742-17.147,17.742S61.6,61.772,61.6,51.973,69.276,34.23,78.746,34.23s17.147,7.944,17.147,17.743m-4.646-.008A12.514,12.514,0,1,0,78.741,64.906,12.73,12.73,0,0,0,91.247,51.964" transform="translate(-33.953 -18.33)" fill="#fff"/>
    <path id="Tracé_18" data-name="Tracé 18" d="M118.385,103.2l14.808,26.628a3.185,3.185,0,0,1-5.361,3.391l-15-26.889a20.548,20.548,0,0,0,2.944-1.368c.908-.53,1.7-1.241,2.611-1.763m3.589,8.188-4.043,2.423,5.415,9.674,4.043-2.423Z" transform="translate(-62.192 -55.264)" fill="#fff"/>
    <path id="Tracé_19" data-name="Tracé 19" d="M92.8,70.977l-.221-.132-5.124-10.2c-3.661-11.014,13.435-11.76,10.725-.481Zm3-13a3.087,3.087,0,1,0-3.085,3.193A3.14,3.14,0,0,0,95.8,57.981" transform="translate(-47.92 -27.866)" fill="#fff"/>
  </g>
</svg>
